
        <svg xmlns="http://www.w3.org/2000/svg" xmlns:xlink="http://www.w3.org/1999/xlink" version="1.1" width="2998.9932534913155" 
        height="3162.107743431963" viewBox="0 0 2998.9932534913155 3162.107743431963">
			<rect fill="#542580" width="2998.9932534913155" height="3162.107743431963"/>
			<g transform="scale(8.10538717159815) translate(10, 10)">
				<defs id="SvgjsDefs3303"><linearGradient id="SvgjsLinearGradient3312"><stop id="SvgjsStop3313" stop-color="#905e26" offset="0"></stop><stop id="SvgjsStop3314" stop-color="#f5ec9b" offset="0.5"></stop><stop id="SvgjsStop3315" stop-color="#905e26" offset="1"></stop></linearGradient><linearGradient id="SvgjsLinearGradient3316"><stop id="SvgjsStop3317" stop-color="#51504f" offset="0"></stop><stop id="SvgjsStop3318" stop-color="#939598" offset="0.5"></stop><stop id="SvgjsStop3319" stop-color="#51504f" offset="1"></stop></linearGradient><linearGradient id="SvgjsLinearGradient3320"><stop id="SvgjsStop3321" stop-color="#905e26" offset="0"></stop><stop id="SvgjsStop3322" stop-color="#f5ec9b" offset="0.5"></stop><stop id="SvgjsStop3323" stop-color="#905e26" offset="1"></stop></linearGradient><linearGradient id="SvgjsLinearGradient3324"><stop id="SvgjsStop3325" stop-color="#905e26" offset="0"></stop><stop id="SvgjsStop3326" stop-color="#f5ec9b" offset="0.5"></stop><stop id="SvgjsStop3327" stop-color="#905e26" offset="1"></stop></linearGradient></defs><g id="SvgjsG3304" featureKey="symbolGroupContainer" transform="matrix(1,0,0,1,68,0)" fill="url(#SvgjsLinearGradient3312)"><rect xmlns="http://www.w3.org/2000/svg" width="215" height="215" rx="10" ry="10"></rect></g><g id="SvgjsG3305" featureKey="1p4tPl-0" transform="matrix(1.9060197387582303,0,0,1.9060197387582303,80.19913757605038,12.199137576050376)" fill="url(#SvgjsLinearGradient3316)"><path xmlns="http://www.w3.org/2000/svg" d="M93.034,49.313l-31.582-3.112c-0.965-0.095-1.905-0.385-2.778-0.827l15.099-18.4c1.878-2.289,1.542-2.625-0.747-0.747  l-18.4,15.099c-0.441-0.873-0.732-1.813-0.827-2.778L50.687,6.966c-0.378-3.831-0.995-3.831-1.373,0l-3.112,31.582  c-0.095,0.965-0.386,1.905-0.827,2.778l-18.4-15.099c-2.289-1.878-2.625-1.542-0.747,0.747l15.099,18.4  c-0.873,0.441-1.813,0.732-2.778,0.827L6.966,49.313c-3.831,0.378-3.831,0.995,0,1.373l31.582,3.112  c0.965,0.095,1.905,0.386,2.778,0.827l-15.099,18.4c-1.878,2.289-1.542,2.625,0.747,0.747l18.4-15.099  c0.441,0.873,0.732,1.813,0.827,2.778l3.112,31.582c0.378,3.831,0.995,3.831,1.373,0l3.112-31.582  c0.095-0.965,0.386-1.905,0.827-2.778l18.4,15.099c2.289,1.878,2.625,1.542,0.747-0.747l-15.099-18.4  c0.873-0.441,1.813-0.732,2.778-0.827l31.582-3.112C96.865,50.309,96.865,49.691,93.034,49.313z"></path></g><g id="SvgjsG3306" featureKey="dYASrj-0" transform="matrix(3.2276693395052902,0,0,3.2276693395052902,-6.776814023171855,215.6146131942748)" fill="url(#SvgjsLinearGradient3320)"><path d="M9.6094 7.939 l-5.5273 0 l0 4.2969 l4.873 0 l0 1.7383 l-4.873 0 l0 4.2676 l5.5273 0 l0 1.7578 l-7.5098 0 l0 -13.809 l7.5098 0 l0 1.748 z M21.83578125 20 l-1.1523 -3.2227 l-6.1719 0 l-1.1523 3.2227 l-2.0215 0 l5.0879 -13.809 l2.3438 0 l5.0879 13.809 l-2.0215 0 z M15.11718125 15.0781 l4.9609 0 l-2.4805 -6.9629 z M33.94533125 20 l-3.5742 -6.2109 l-1.9336 0 l0 6.2109 l-1.9434 0 l0 -13.809 l4.6484 0 c2.8906 0 4.209 1.7676 4.209 3.9355 c0 1.9238 -1.1328 3.2617 -3.0273 3.584 l3.8965 6.2891 l-2.2754 0 z M28.43753125 7.871 l0 4.4336 l2.4414 0 c1.7969 0 2.6074 -0.89844 2.6074 -2.207 c0 -1.2891 -0.81055 -2.2266 -2.6074 -2.2266 l-2.4414 0 z M46.562525 7.939 l-5.5273 0 l0 4.2969 l4.873 0 l0 1.7383 l-4.873 0 l0 4.2676 l5.5273 0 l0 1.7578 l-7.5098 0 l0 -13.809 l7.5098 0 l0 1.748 z M59.15990625 6.191000000000001 l1.9336 0 l0 13.809 l-2.0996 0 l-7.2168 -10.957 l0 10.957 l-1.9238 0 l0 -13.809 l2.0801 0 l7.2266 10.908 l0 -10.908 z M65.292959375 20 l0 -13.809 l4.5508 0 c4.248 0 6.4063 2.8516 6.4063 6.8945 c0 4.0723 -2.1582 6.9141 -6.4063 6.9141 l-4.5508 0 z M67.236359375 18.2422 l2.5293 0 c3.0176 0 4.4531 -2.002 4.4531 -5.1563 c0 -3.1348 -1.4355 -5.1465 -4.4531 -5.1465 l-2.5293 0 l0 10.303 z M79.54100625 20 l0 -13.809 l1.9434 0 l0 13.809 l-1.9434 0 z M87.63675 18.2422 l4.7168 0 l0 1.7578 l-6.6602 0 l0 -13.809 l1.9434 0 l0 12.051 z M95.292925 12.5 l-0.12695 -6.3086 l1.7676 0 l-0.18555 6.3086 l-1.4551 0 z M105.6054875 20.18555 c-2.8809 0 -4.9902 -1.377 -5.459 -3.7207 l1.9824 -0.46875 c0.3125 1.6113 1.709 2.5391 3.5449 2.5391 c1.4746 0 2.8906 -0.60547 2.8613 -2.2656 c-0.019531 -1.6406 -1.7969 -2.0898 -3.6816 -2.6074 c-2.1387 -0.58594 -4.2773 -1.2598 -4.2773 -3.7988 c0 -2.5684 2.1191 -3.8574 4.6289 -3.8574 c2.4316 0 4.6191 1.0254 5.1367 3.3984 l-1.8848 0.47852 c-0.3418 -1.5332 -1.6211 -2.2168 -3.1641 -2.2168 c-1.3867 0 -2.7637 0.60547 -2.7637 2.1777 c0 1.4258 1.543 1.8457 3.291 2.3145 c2.1973 0.5957 4.7168 1.2793 4.7168 4.0527 c0 2.793 -2.3438 3.9746 -4.9316 3.9746 z"></path></g><g id="SvgjsG3307" featureKey="dYASrj-1" transform="matrix(5.596499455174766,0,0,5.596499455174766,-11.75040935088941,257.38826198371527)" fill="url(#SvgjsLinearGradient3324)"><path d="M9.6875 7.939 l-5.6055 0 l0 4.2871 l4.873 0 l0 1.748 l-4.873 0 l0 6.0254 l-1.9824 0 l0 -13.809 l7.5879 0 l0 1.748 z M18.49611875 20.18555 c-3.916 0 -6.9043 -2.6953 -6.9043 -7.0996 c0 -4.3945 2.9883 -7.0801 6.9043 -7.0801 c3.8965 0 6.8945 2.6855 6.8945 7.0801 c0 4.4043 -2.998 7.0996 -6.8945 7.0996 z M18.49611875 18.3594 c2.7637 0 4.9512 -1.9141 4.9512 -5.2734 c0 -3.3301 -2.1875 -5.2441 -4.9512 -5.2441 c-2.7734 0 -4.9707 1.9141 -4.9707 5.2441 c0 3.3594 2.1973 5.2734 4.9707 5.2734 z M36.084003125 20 l-3.5742 -6.2109 l-1.9336 0 l0 6.2109 l-1.9434 0 l0 -13.809 l4.6484 0 c2.8906 0 4.209 1.7676 4.209 3.9355 c0 1.9238 -1.1328 3.2617 -3.0273 3.584 l3.8965 6.2891 l-2.2754 0 z M30.576203125 7.871 l0 4.4336 l2.4414 0 c1.7969 0 2.6074 -0.89844 2.6074 -2.207 c0 -1.2891 -0.81055 -2.2266 -2.6074 -2.2266 l-2.4414 0 z M47.070296875 20.18555 c-3.8672 0 -6.8359 -2.6465 -6.8359 -7.0508 c0 -4.4434 2.9883 -7.1289 6.9043 -7.1289 c2.5391 0 4.7168 1.1133 5.9082 3.2227 l-1.7188 0.91797 c-0.86914 -1.6211 -2.4219 -2.373 -4.1895 -2.373 c-2.793 0 -4.9512 1.8945 -4.9512 5.3223 c0 3.3789 2.1094 5.3418 5.0195 5.3418 c2.3438 0 4.1797 -1.3184 4.502 -3.9355 l-4.5117 0 l0 -1.6211 l6.3965 0 l0 7.1191 l-1.582 0 l0 -2.4805 c-0.9082 1.6895 -2.6172 2.666 -4.9414 2.666 z M64.638696875 7.939 l-5.5273 0 l0 4.2969 l4.873 0 l0 1.7383 l-4.873 0 l0 4.2676 l5.5273 0 l0 1.7578 l-7.5098 0 l0 -13.809 l7.5098 0 l0 1.748 z"></path></g>
			</g>
		</svg>
	